<?xml version="1.0" encoding="iso-8859-1"?>
<!-- Generator: Adobe Illustrator 19.0.0, SVG Export Plug-In . SVG Version: 6.00 Build 0)  -->
<svg version="1.1" id="Capa_1" xmlns="http://www.w3.org/2000/svg" xmlns:xlink="http://www.w3.org/1999/xlink" x="0px" y="0px"
	 viewBox="0 0 512 512" style="enable-background:new 0 0 512 512;" xml:space="preserve">
<g>
	<g>
		<path style="fill:#FFE0B1;" d="M496,48H16C7.18,48,0,55.18,0,64v384c0,8.82,7.18,16,16,16h480c8.82,0,16-7.18,16-16V64
			C512,55.18,504.82,48,496,48z"/>
	</g>
	<g>
		<g>
			<path style="fill:#5C546A;" d="M400,416h-56c-4.422,0-8-3.578-8-8s3.578-8,8-8h56c4.422,0,8,3.578,8,8S404.422,416,400,416z"/>
		</g>
	</g>
	<g>
		<g>
			<path style="fill:#8A8895;" d="M448,416h-16c-4.422,0-8-3.578-8-8s3.578-8,8-8h16c4.422,0,8,3.578,8,8S452.422,416,448,416z"/>
		</g>
	</g>
	<g>
		<g>
			<path style="fill:#5C546A;" d="M448,352H344c-4.422,0-8-3.578-8-8s3.578-8,8-8h104c4.422,0,8,3.578,8,8S452.422,352,448,352z"/>
		</g>
	</g>
	<g>
		<g>
			<path style="fill:#5C546A;" d="M376,384h-32c-4.422,0-8-3.578-8-8s3.578-8,8-8h32c4.422,0,8,3.578,8,8S380.422,384,376,384z"/>
		</g>
	</g>
	<g>
		<g>
			<path style="fill:#8A8895;" d="M416,384h-8c-4.422,0-8-3.578-8-8s3.578-8,8-8h8c4.422,0,8,3.578,8,8S420.422,384,416,384z"/>
		</g>
	</g>
	<g>
		<circle style="fill:#FF4F19;" cx="360" cy="288" r="24"/>
	</g>
	<g>
		<path style="fill:#9E6459;" d="M184,48v192c0,2.773,1.438,5.344,3.797,6.805c2.359,1.469,5.297,1.578,7.781,0.352L256,216.945
			l60.422,30.211c1.133,0.563,2.352,0.844,3.578,0.844c1.461,0,2.922-0.398,4.203-1.195c2.359-1.461,3.797-4.031,3.797-6.805V48H184
			z"/>
	</g>
</g>
<g>
</g>
<g>
</g>
<g>
</g>
<g>
</g>
<g>
</g>
<g>
</g>
<g>
</g>
<g>
</g>
<g>
</g>
<g>
</g>
<g>
</g>
<g>
</g>
<g>
</g>
<g>
</g>
<g>
</g>
</svg>
