<?xml version="1.0" encoding="iso-8859-1"?>
<!-- Generator: Adobe Illustrator 18.0.0, SVG Export Plug-In . SVG Version: 6.00 Build 0)  -->
<!DOCTYPE svg PUBLIC "-//W3C//DTD SVG 1.1//EN" "http://www.w3.org/Graphics/SVG/1.1/DTD/svg11.dtd">
<svg version="1.1" id="Capa_1" xmlns="http://www.w3.org/2000/svg" xmlns:xlink="http://www.w3.org/1999/xlink" x="0px" y="0px"
	 viewBox="0 0 156.133 156.133" style="enable-background:new 0 0 156.133 156.133;" xml:space="preserve">
<g>
	<rect x="17.073" y="30.296" style="fill-rule:evenodd;clip-rule:evenodd;fill:#F59DCC;" width="121.987" height="103.124"/>
	<rect x="17.073" y="96.925" style="fill-rule:evenodd;clip-rule:evenodd;fill:#DB86B3;" width="121.987" height="36.495"/>
	<polygon style="fill-rule:evenodd;clip-rule:evenodd;fill:#47C796;" points="0.001,51.767 156.133,51.768 139.061,22.712 
		17.073,22.712 	"/>
	<g>
		<path style="fill-rule:evenodd;clip-rule:evenodd;fill:#EDC256;" d="M14.194,51.768c0,4.027,3.177,7.293,7.097,7.293
			s7.097-3.266,7.097-7.293H14.194z"/>
		<path style="fill-rule:evenodd;clip-rule:evenodd;fill:#EDC256;" d="M42.582,51.768c0,4.027,3.177,7.293,7.097,7.293
			s7.097-3.266,7.097-7.293H42.582z"/>
		<path style="fill-rule:evenodd;clip-rule:evenodd;fill:#EDC256;" d="M70.97,51.768c0,4.027,3.177,7.293,7.097,7.293
			s7.097-3.266,7.097-7.293H70.97z"/>
		<path style="fill-rule:evenodd;clip-rule:evenodd;fill:#EDC256;" d="M99.357,51.768c0,4.027,3.177,7.293,7.097,7.293
			c3.92,0,7.098-3.266,7.098-7.293H99.357z"/>
		<path style="fill-rule:evenodd;clip-rule:evenodd;fill:#EDC256;" d="M127.745,51.768c0,4.027,3.177,7.293,7.097,7.293
			c3.92,0,7.097-3.266,7.097-7.293H127.745z"/>
	</g>
	<g>
		<path style="fill-rule:evenodd;clip-rule:evenodd;fill:#19A871;" d="M14.194,51.768c0,4.027-3.178,7.293-7.097,7.293
			C3.178,59.061,0,55.795,0,51.768H14.194z"/>
		<path style="fill-rule:evenodd;clip-rule:evenodd;fill:#19A871;" d="M42.582,51.768c0,4.027-3.178,7.293-7.097,7.293
			c-3.92,0-7.098-3.266-7.098-7.293H42.582z"/>
		<path style="fill-rule:evenodd;clip-rule:evenodd;fill:#19A871;" d="M70.97,51.768c0,4.027-3.178,7.293-7.097,7.293
			c-3.92,0-7.098-3.266-7.098-7.293H70.97z"/>
		<path style="fill-rule:evenodd;clip-rule:evenodd;fill:#19A871;" d="M99.357,51.768c0,4.027-3.178,7.293-7.097,7.293
			c-3.92,0-7.098-3.266-7.098-7.293H99.357z"/>
		<path style="fill-rule:evenodd;clip-rule:evenodd;fill:#19A871;" d="M127.745,51.768c0,4.027-3.178,7.293-7.097,7.293
			c-3.92,0-7.097-3.266-7.097-7.293H127.745z"/>
		<path style="fill-rule:evenodd;clip-rule:evenodd;fill:#19A871;" d="M156.133,51.768c0,4.027-3.178,7.293-7.097,7.293
			c-3.92,0-7.098-3.266-7.098-7.293H156.133z"/>
	</g>
	<polygon style="fill-rule:evenodd;clip-rule:evenodd;fill:#FFD873;" points="14.194,51.767 141.938,51.768 127.971,22.712 
		28.163,22.712 	"/>
	<polygon style="fill-rule:evenodd;clip-rule:evenodd;fill:#47C796;" points="28.389,51.767 127.745,51.768 116.881,22.712 
		39.253,22.712 	"/>
	<polygon style="fill-rule:evenodd;clip-rule:evenodd;fill:#FFD873;" points="42.582,51.767 113.552,51.768 105.791,22.712 
		50.342,22.712 	"/>
	<polygon style="fill-rule:evenodd;clip-rule:evenodd;fill:#47C796;" points="56.776,51.767 99.357,51.768 94.701,22.712 
		61.433,22.712 	"/>
	<polygon style="fill-rule:evenodd;clip-rule:evenodd;fill:#FFD873;" points="70.97,51.767 85.163,51.768 83.611,22.712 
		72.521,22.712 	"/>
	<g>
		<rect x="76.172" y="60.431" style="fill-rule:evenodd;clip-rule:evenodd;fill:#DB86B3;" width="43.884" height="72.989"/>
		<rect x="79.961" y="63.689" style="fill-rule:evenodd;clip-rule:evenodd;fill:#9FECFF;" width="36.307" height="69.731"/>
		<rect x="36.077" y="60.431" style="fill-rule:evenodd;clip-rule:evenodd;fill:#DB86B3;" width="43.884" height="72.989"/>
		<rect x="39.866" y="63.689" style="fill-rule:evenodd;clip-rule:evenodd;fill:#9FECFF;" width="36.306" height="69.731"/>
		<g>
			<polygon style="fill-rule:evenodd;clip-rule:evenodd;fill:#DEF8FF;" points="39.866,109.216 76.172,72.911 76.172,69.166 
				39.866,105.471 			"/>
			<polygon style="fill-rule:evenodd;clip-rule:evenodd;fill:#DEF8FF;" points="39.866,120.454 76.172,84.147 76.172,76.656 
				39.866,112.962 			"/>
			<polygon style="fill-rule:evenodd;clip-rule:evenodd;fill:#DEF8FF;" points="39.866,127.944 76.172,91.638 76.172,87.893 
				39.866,124.199 			"/>
		</g>
		<g>
			<polygon style="fill-rule:evenodd;clip-rule:evenodd;fill:#DEF8FF;" points="79.961,109.216 116.268,72.911 116.268,69.166 
				79.961,105.471 			"/>
			<polygon style="fill-rule:evenodd;clip-rule:evenodd;fill:#DEF8FF;" points="79.961,120.454 116.268,84.147 116.268,76.656 
				79.961,112.962 			"/>
			<polygon style="fill-rule:evenodd;clip-rule:evenodd;fill:#DEF8FF;" points="79.961,127.944 116.268,91.638 116.268,87.893 
				79.961,124.199 			"/>
		</g>
	</g>
</g>
<g>
</g>
<g>
</g>
<g>
</g>
<g>
</g>
<g>
</g>
<g>
</g>
<g>
</g>
<g>
</g>
<g>
</g>
<g>
</g>
<g>
</g>
<g>
</g>
<g>
</g>
<g>
</g>
<g>
</g>
</svg>
