<?xml version="1.0" encoding="utf-8"?>
<!-- Svg Vector Icons : http://www.onlinewebfonts.com/icon -->
<!DOCTYPE svg PUBLIC "-//W3C//DTD SVG 1.1//EN" "http://www.w3.org/Graphics/SVG/1.1/DTD/svg11.dtd">
<svg version="1.1" xmlns="http://www.w3.org/2000/svg" xmlns:xlink="http://www.w3.org/1999/xlink" x="0px" y="0px" viewBox="0 0 1000 1000" enable-background="new 0 0 1000 1000" xml:space="preserve">
<metadata> Svg Vector Icons : http://www.onlinewebfonts.com/icon </metadata>
<g><g transform="translate(0.000000,317.000000) scale(0.100000,-0.100000)"><path d="M3619.8,1171.5c-210.7-44.1-417.6-120.7-718.3-260.5c-501.9-233.7-798.8-318-1427.1-396.5c-513.4-67-582.3-86.2-681.9-189.6c-109.2-113-208.8-415.7-229.9-701.1c-15.3-222.2-141.7-934.8-170.5-969.2c-69-80.5-93.9-168.6-107.3-383.1c-7.7-120.7-30.6-302.6-53.6-402.2c-67-304.6-84.3-536.3-74.7-957.8c7.7-339.1,3.8-417.6-26.8-574.7c-46-222.2-38.3-505.7,21.1-735.6c44.1-164.7,59.4-191.5,137.9-231.8c76.6-40.2,486.5-118.8,793-151.3c695.3-74.7,867.7-78.5,3725.7-78.5h2787.1l275.8,44.1c929,147.5,1626.3,455.9,1932.7,850.5c76.6,99.6,82.4,116.8,93.9,258.6c13.4,187.7-17.2,331.4-90,415.7c-32.6,36.4-57.5,93.9-67.1,145.6c-36.4,227.9-193.5,434.8-406.1,532.5c-168.6,76.6-354.4,99.6-628.3,78.5c-377.4-30.6-902.2,32.6-1360,164.7c-197.3,57.5-172.4,44.1-879.2,482.7l-534.4,331.4h-122.6h-120.7l-358.2,229.9l-358.2,229.9l-101.5,174.3c-93.9,159-101.5,182-101.5,291.2c0,147.5-44.1,325.6-103.4,415.7c-32.6,49.8-47.9,109.2-57.5,229.9C4566,485.7,4338.1,962.7,4068,1142.7c-78.5,51.7-107.3,59.4-206.9,57.5C3796,1200.2,3688.7,1186.8,3619.8,1171.5z M3991.4,798c180.1-201.1,293.1-524.9,312.2-898.4c11.5-216.4,13.4-222.2,72.8-277.7c42.1-40.2,65.1-84.3,74.7-141.7l13.4-84.3l-270.1-272c-147.5-151.3-268.2-285.4-268.2-300.7c0-51.7,59.4-111.1,109.2-111.1c38.3,0,99.6,49.8,252.8,201.1l205,201.1l107.3-187.7l109.2-185.8l-84.3-86.2l-84.3-86.2l-310.3,9.6c-404.2,13.4-381.2-11.5-381.2,409.9v308.4l206.9,105.4l205,105.4l5.7,145.6c3.8,124.5,0,149.4-34.5,180.1c-34.5,30.7-49.8,32.6-137.9,11.5c-82.4-19.2-103.4-17.2-126.4,5.7c-46,46-13.4,82.4,105.4,116.9c160.9,46,164.7,53.6,153.2,201.1c-23,283.5-159,469.3-373.5,519.1C3598.7,744.3,2694.6,424.4,1256-232.6C1045.3-328.4,872.9-405,871-401.2c-1.9,1.9,7.7,69,21.1,149.4c32.6,183.9,95.8,356.3,139.8,381.2c19.2,9.6,227.9,44.1,463.6,74.7c697.2,95.8,1015.2,180.1,1450,386.9c308.4,147.5,434.8,199.2,605.3,245.2C3853.5,920.5,3884.1,916.7,3991.4,798z M3868.8,464.7c59.4-30.6,120.7-130.2,141.7-231.8c13.4-55.5,9.6-61.3-70.9-91.9c-105.4-40.2-164.7-101.5-185.8-193.5c-32.6-143.7,63.2-291.2,205-316.1c70.9-11.5,46-24.9-651.3-369.7c-722.2-354.4-726-356.3-863.9-496.1c-103.4-103.4-159-178.1-210.7-287.3l-70.9-149.4h-137.9c-176.2,0-408,38.3-687.7,113c-268.2,70.9-609.1,191.6-609.1,214.5c0,70.9,122.6,681.9,139.8,699.2C928.5-588.9,2393.8,49,2901.5,238.6c379.3,143.7,524.9,191.6,681.9,226C3746.2,499.1,3801.8,499.1,3868.8,464.7z M3638.9-979.6v-170.5l-291.2-143.7c-408-201.1-934.8-388.9-934.8-335.2c0,42.1,120.7,208.8,208.8,285.4c55.6,51.7,252.9,160.9,544,306.5c250.9,126.4,459.7,227.9,465.5,227.9C3635.1-809.2,3638.9-885.8,3638.9-979.6z M3822.8-1577.3c69-42.1,97.7-46,409.9-55.5c321.8-9.6,339.1-11.5,442.5-65.1c59.4-28.7,176.2-113,258.6-187.7c182-159,494.2-373.5,699.2-475c147.5-74.7,149.4-76.6,162.8-166.7c7.7-47.9,7.7-210.7,1.9-358.2c-11.5-304.6-63.2-540.2-166.7-773.9l-63.2-137.9h-164.7c-463.6,0-2400.2,109.2-2564.9,145.6c-36.4,7.7-70.9,61.3-170.5,272c-296.9,626.4-329.5,685.8-411.8,775.8c-46,49.8-80.4,90-76.6,90c3.8,0,254.8-90,557.4-199.2c810.3-295,1172.3-388.8,1572.6-408c348.6-17.2,540.2,51.7,636,224.1c28.7,53.6,36.4,97.7,30.6,220.3c-7.7,206.9-70.9,331.4-254.8,503.8c-124.5,118.8-383.1,289.2-480.8,318c-42.1,13.4-42.1,11.5,7.7-116.8c65.1-174.3,70.9-381.2,11.5-459.7c-23-28.7-69-70.9-101.5-90c-78.5-46-285.4-61.3-425.2-32.6c-57.5,11.5-787.3,222.2-1622.4,465.5l-1519,444.4l11.5,47.9c7.7,26.8,15.3,51.7,17.2,53.6c1.9,1.9,82.4-26.8,180.1-63.2c97.7-36.4,283.5-97.7,411.8-134.1c770-222.2,1239.3-185.8,2005.5,153.2c111.1,49.8,252.9,116.8,316.1,151.3l114.9,61.3l49.8-78.5C3727.1-1494.9,3782.6-1552.4,3822.8-1577.3z M5073.7-1525.6l176.2-113l-67.1-69l-69-67.1l-61.3,59.4c-34.5,32.6-113,93.9-172.4,134.1l-109.2,76.6l51.7,49.8c28.7,28.7,55.6,49.8,61.3,47.9C4889.8-1410.6,4976-1464.3,5073.7-1525.6z M5485.5-1791.8c26.8-19.2,30.6-47.9,26.8-143.6l-5.7-118.8l-109.2,72.8l-109.2,72.8l70.9,70.9C5437.6-1757.3,5439.5-1757.3,5485.5-1791.8z M5968.2-1941.2l126.4-80.4l-113-113l-114.9-113l-69,32.6l-70.9,34.5v159v159h57.5C5818.8-1862.7,5893.5-1893.3,5968.2-1941.2z M1256-2332c377.3-153.2,718.3-300.7,756.6-327.6c38.3-26.8,95.8-84.3,126.4-128.3c61.3-84.3,413.7-817.9,400.3-831.3c-9.6-11.5-664.7,59.4-1304.5,137.9c-626.4,78.5-733.6,95.8-750.9,113c-24.9,24.9-30.6,618.7-7.7,810.3c19.2,162.8,78.5,503.8,86.2,503.8C564.5-2054.2,876.8-2178.7,1256-2332z M6487.3-2264.9l82.4-49.8l-82.4-80.4l-84.3-82.4l-93.8,38.3c-51.7,19.2-128.3,51.7-168.6,69l-74.7,30.6l101.5,103.4l103.4,103.4l67.1-40.2C6376.2-2196,6443.3-2238.1,6487.3-2264.9z M6903-2521.6c57.5-36.4,139.8-76.6,182-90c74.7-21.1,78.5-26.8,78.5-97.7c0-40.2-7.7-72.8-15.3-72.8c-9.6,0-97.7,34.5-197.3,74.7c-99.6,42.1-214.6,88.1-254.8,105.4l-74.7,30.7l63.2,67C6757.4-2429.7,6757.4-2429.7,6903-2521.6z M6452.8-2722.8c227.9-95.8,446.3-185.8,486.5-203l72.8-30.7l-47.9-61.3c-111.1-143.7-226-446.3-268.2-706.8l-13.4-68.9l-195.4-7.7c-107.3-1.9-306.5-1.9-440.6,1.9c-220.3,5.8-245.2,9.6-231.8,38.3c128.3,302.7,187.7,591.9,187.7,934.8c1.9,155.1,9.6,273.9,19.2,273.9S6226.8-2628.9,6452.8-2722.8z M7550.4-2741.9c325.6-76.6,568.9-103.4,950.1-105.4c325.6,0,362-3.8,300.7-24.9c-132.2-46-354.4-82.4-561.2-93.9c-346.7-19.2-488.5-63.2-714.5-224.1c-95.8-67.1-113-72.8-151.3-51.7c-42.1,23-44.1,26.8-30.6,252.9c13.4,206.9,23,283.5,40.2,283.5C7387.6-2705.5,7462.3-2722.8,7550.4-2741.9z M9343.3-3000.5c55.6-65.1,99.6-170.5,99.6-247.1c0-86.2-662.8-283.5-1333.2-396.5c-350.5-59.4-1185.7-149.4-1206.8-130.3c-21.1,23,68.9,329.5,139.8,475c68.9,143.7,68.9,143.7,82.4,82.4c34.5-157.1,147.5-241.3,306.5-231.8c90,5.7,122.6,21.1,212.6,88.1c178.2,134.1,252.9,157.1,603.4,187.7c427.2,36.4,681.9,99.6,892.6,226C9232.2-2893.2,9253.3-2899,9343.3-3000.5z M9577-3510c19.2-36.4,9.6-46-118.8-105.4c-501.9-229.9-1450-388.8-2706.6-452.1c-509.5-24.9-1884.9-13.4-2442.3,21.1c-1021,61.3-2091.7,159-3047.6,277.7c-817.9,101.5-819.8,103.4-806.4,147.5c7.7,30.6,19.2,36.4,69,26.8c34.5-7.6,333.3-46,664.7-88.1c1697.2-212.6,3357.9-325.6,4798.4-325.6c833.3,0,1499.9,49.8,2181.8,164.7c475,78.5,1015.2,222.2,1260.4,333.3C9531.1-3462.1,9552.1-3462.1,9577-3510z M9498.5-3847.2c-53.6-63.2-252.9-204.9-406.1-285.4c-316.1-166.7-733.6-291.2-1268.1-377.4c-268.2-42.1-275.8-42.1-2710.5-46c-3154.9-5.7-3884.7,21.1-4551.3,164.7c-97.7,21.1-99.6,23-122.6,111.1c-13.4,49.8-28.7,162.8-34.5,250.9l-9.6,160.9l103.4-11.5c57.5-5.8,342.9-42.1,637.9-80.5c3208.5-409.9,5982.2-440.6,7627.6-82.4c218.4,46,400.4,101.5,752.8,224.1C9521.5-3818.4,9511.9-3829.9,9498.5-3847.2z"/><path d="M2796.1-311.1c-78.5-51.7-149.4-93.9-157.1-93.9c-9.6-1.9-15.3,32.6-15.3,72.8c0,95.8-15.3,105.4-91.9,57.5c-44.1-24.9-97.7-36.4-182-36.4c-249,0-411.8-90-503.8-279.7c-42.1-88.1-67-113-147.5-155.2l-97.7-47.9l82.4-49.8l80.5-47.9L1643-966.2c-67-42.1-145.6-91.9-178.1-113l-57.5-36.4h157.1c293.1,0,568.9,55.5,787.3,157.1c116.9,55.5,304.6,235.6,419.5,402.3c105.4,151.3,206.9,341,183.9,339C2945.5-217.3,2874.6-259.4,2796.1-311.1z"/></g></g>
</svg>